<svg width="30" height="31" viewBox="0 0 30 31" fill="none" xmlns="http://www.w3.org/2000/svg">
<path d="M28.344 0.00292972H1.65454C0.740662 0.00347904 -0.000183072 0.74469 3.39346e-08 1.65894V28.3484C0.000549353 29.2623 0.74176 30.0031 1.65601 30.0029H16.0254V18.4014H12.1289V13.8604H16.0254V10.5185C16.0254 6.64307 18.3913 4.53369 21.8483 4.53369C23.5042 4.53369 24.9271 4.6571 25.3418 4.71222V8.7627H22.9579C21.0771 8.7627 20.7129 9.65643 20.7129 10.9682V13.8604H25.21L24.624 18.4014H20.7129V30.0029H28.344C29.2584 30.0031 29.9998 29.2621 30 28.3477C30 28.3475 30 28.3473 30 28.3469V1.65747C29.9996 0.743591 29.2582 0.00274662 28.344 0.00292972Z" fill="#221C35"/>
</svg>
