<svg width="31" height="31" viewBox="0 0 31 31" fill="none" xmlns="http://www.w3.org/2000/svg">
<path fill-rule="evenodd" clip-rule="evenodd" d="M0.922852 3.60542C0.922852 1.61667 2.5366 0.00292969 4.52534 0.00292969C6.51283 0.00292969 8.12658 1.61667 8.12783 3.60542C8.12783 5.59416 6.51408 7.24166 4.52534 7.24166C2.5366 7.24166 0.922852 5.59416 0.922852 3.60542ZM30.9153 30.0026V30.0014H30.9228V18.9989C30.9228 13.6164 29.7641 9.47018 23.4716 9.47018C20.4466 9.47018 18.4166 11.1302 17.5879 12.7039H17.5004V9.97268H11.5341V30.0014H17.7466V20.0839C17.7466 17.4727 18.2416 14.9477 21.4754 14.9477C24.6616 14.9477 24.7091 17.9277 24.7091 20.2514V30.0026H30.9153ZM1.41797 9.97409H7.63795V30.0028H1.41797V9.97409Z" fill="#221C35"/>
</svg>
