<svg fill="none" height="56" viewBox="0 0 56 56" width="56" xmlns="http://www.w3.org/2000/svg"><path d="m49.0062 33.103c-.0872-.7268-.7559-1.2792-1.5118-1.2792l-7.4718.029c-.407 0-.7268-.3198-.7268-.7268v-1.3374c0-.407.3198-.7268.7268-.7268h7.5009c.7559 0 1.4246-.5524 1.5118-1.2792.0872-.8431-.5814-1.57-1.3955-1.57h-7.559c-.4071 0-.7269-.3198-.7269-.7268v-1.3374c0-.407.3198-.7268.7269-.7268h7.4427c.7559 0 1.4246-.5524 1.5118-1.2792.0872-.8431-.5814-1.57-1.3955-1.57l-10.728.0291c-2.0352 0-3.954.9885-5.0878 2.6457-.7559 1.1048-2.0352 1.7444-3.3725 1.6862l-24.74137-.6687c-1.88976-.029-1.88976 6.7741 0 6.745l24.77037-.6396c1.3374-.0581 2.6166.5815 3.3725 1.6863 1.163 1.6862 3.0527 2.6456 5.0878 2.6456h10.6409c.8431-.0291 1.5118-.7559 1.4245-1.599z" fill="#095256"/></svg>