<svg fill="none" height="100" viewBox="0 0 178 100" width="178" xmlns="http://www.w3.org/2000/svg" xmlns:xlink="http://www.w3.org/1999/xlink"><clipPath id="a"><path d="m0 0h177.329v100h-177.329z"/></clipPath><g clip-path="url(#a)"><path d="m164.839 99.8921h-124.9353c-22.0372 0-39.9037-17.8664-39.9037-39.9037v-19.7888c0-22.0372 17.8665-39.903702 39.9037-39.903702h124.9353c6.729 0 12.186 5.456522 12.186 12.186302v75.2236c0 6.7298-5.457 12.1863-12.186 12.1863z" fill="#221c35"/><path d="m34.6741 37.9576c1.8214 0 3.2982-1.4764 3.2982-3.2981 0-1.8215-1.4768-3.2982-3.2982-3.2982s-3.2981 1.4767-3.2981 3.2982c0 1.8217 1.4767 3.2981 3.2981 3.2981z" fill="#221c35"/><path d="m45.1336 37.9576c1.8214 0 3.2981-1.4764 3.2981-3.2981 0-1.8215-1.4767-3.2982-3.2981-3.2982s-3.2982 1.4767-3.2982 3.2982c0 1.8217 1.4768 3.2981 3.2982 3.2981z" fill="#221c35"/><path d="m59.6926 59.9889c0-3.6056-.9627-6.9845-2.649-9.8944-1.028-1.7764-2.323-3.3758-3.8323-4.7485 0 0 0 0 0-.0031-.0311-.0279-.0652-.0559-.0963-.0838-.1429-.1273-.2888-.2547-.4348-.3789-.0466-.0404-.0932-.0776-.1397-.118-.0684-.0559-.1336-.1118-.2019-.1677v.0031-.0031c-.0497-.0404-.1025-.0808-.1522-.1211-.0466-.0373-.1397-.1087-.1397-.1087-2.5031-1.9503-5.4876-3.3106-8.7454-3.8758-.4565-.0776-.9192.0932-1.2174.4441l-2.1832 2.559-2.1832-2.559c-.3013-.3509-.764-.5249-1.2174-.4441-3.3851.587-6.4752 2.0311-9.0373 4.1056-.5248-1.4783-.7919-3.0745-.7515-4.7391.1832-7.1212 6.0559-12.8449 13.1801-12.8511 7.2764-.0031 13.2019 5.9163 13.2019 13.1927 0 .6801-.0528 1.3509-.1522 2.0031-.0652.4223.1025.8447.4348 1.1118 1.3198 1.0683 2.5 2.2764 3.5217 3.6087.4814.6242 1.4627.4596 1.7174-.2857.6957-2.0187 1.0714-4.1833 1.0714-6.4379 0-4.9503-1.8198-9.4753-4.823-12.9474-.3198-.3695-.326-.9192-.0093-1.2919l2.5062-2.941c.3665-.4285.0622-1.0869-.5031-1.0869h-6.0807c-1.8323 0-3.6553-.2516-5.4162-.7547-1.736-.4969-3.5714-.764-5.4658-.764-1.8975 0-3.7298.2671-5.4658.764-1.7609.5062-3.5839.7547-5.4162.7547h-6.0683c-.5621 0-.8665.6584-.5031 1.0869l2.5062 2.941c.3199.3727.3137.9224-.0093 1.2919-3.0062 3.469-4.823 7.9971-4.823 12.9474 0 3.0155.677 5.8695 1.882 8.4254.0963.205.1956.4069.3012.6087.0342.0653.0652.1274.0994.1926.0373.0714.0745.1397.1118.2112.0839.1521.1677.3043.2547.4534-.0963.1646-.1895.3323-.2795.5031-.059.1087-.115.2174-.1709.3292-.0279.0528-.0559.1056-.0838.1615-.0714.1428-.1429.2888-.2112.4347-.0062.0156-.0155.0311-.0217.0466-.0746.1615-.1491.323-.2205.4845-1.0652 2.4286-1.6584 5.1149-1.6584 7.9379 0 4.7422 1.6708 9.0963 4.4534 12.5062 0 0 0 0 .0031-.0031 0 0 0 0-.0031.0031 3.6273 4.441 9.1429 7.2795 15.323 7.2826.8571 0 1.7019-.0528 2.5311-.1615.9347-.1211 1.1832-1.3571.3664-1.8323-2.0124-1.1708-3.8664-2.5962-5.5341-4.2671-.0032-.0031-.0063-.0062-.0063-.0062-.4658-.4658-1.0217-.8354-1.6428-1.0497-2.4193-.8354-4.5218-2.3571-6.0746-4.3323-1.7639-2.2422-2.8167-5.0714-2.8167-8.1397 0-1.5404.2671-3.0217.7546-4.3975-.0217-.0155-.0403-.0342-.059-.0497.0187.0155.0404.0342.059.0497.7578-2.1367 2.0528-4.0249 3.7205-5.4969 2.3261-2.0528 5.3789-3.2982 8.7143-3.2982 3.3385 0 6.3882 1.2454 8.7143 3.2982 1.6677 1.472 2.9627 3.3571 3.7205 5.4969.4876 1.3758.7547 2.8571.7547 4.3975v.0031 12.8758c-3.7516-.677-7.2485-2.4534-9.9814-5.1801-3.5621-3.5528-5.5217-8.2827-5.5217-13.3106 0-1.5.177-2.9814.5217-4.4193.1677-.6956-.4783-1.3198-1.1708-1.1366-1.7143.4565-3.3168 1.3074-4.6708 2.5-.0963.0838-.1926.1708-.2857.2609-.6087.5745-.9659 1.3726-.9845 2.2111-.0031.1926-.0062.3882-.0062.5808 0 3.4286.6708 6.7546 1.9969 9.8882 1.2795 3.0248 3.1087 5.7391 5.441 8.0714s5.0466 4.1615 8.0714 5.441c3.1335 1.3261 6.4596 1.9969 9.8882 1.9969h2.3075c.5465 0 .9906-.4441.9906-.9907z" fill="#221c35"/><g fill="#f9fafb"><path d="m65.8322 40.2001h4.8323c.3167 0 .5838.2267.6397.5404.2671 1.4689 1.6118 2.5714 3.2951 2.5714 1.8074 0 3.149-1.1149 3.149-2.5341 0-1.8044-2.1894-2.7671-4.6863-3.4193-3.8416-.9596-7.528-3.2671-7.528-8.2982 0-4.4937 3.8417-7.8757 8.9131-7.8757 4.9099 0 8.6149 3.0993 8.9969 7.3416.0341.3882-.2671.7267-.6553.7267h-4.8292c-.3199 0-.5807-.2329-.6429-.5466-.2484-1.295-1.3788-2.2205-2.8695-2.2205-1.6118 0-2.8044 1-2.8044 2.3447 0 1.6895 1.7671 2.6119 4.3416 3.3044 4.0342 1.0745 7.8758 3.0342 7.8758 8.2578 0 4.6863-3.9938 8.2205-9.3354 8.2205-5.0683 0-8.9596-3.2516-9.3416-7.6864-.0404-.3882.2578-.7267.6491-.7267z"/><path d="m102.245 35.2841v12.2205c0 .3571-.288.6491-.649.6491h-4.0059c-.3572 0-.6491-.2888-.6491-.6491v-.5031c-1.2298 1-2.8416 1.6118-4.6491 1.6118-3.9192 0-6.9906-2.8043-6.9906-6.4938 0-3.7267 3.0745-6.531 6.9906-6.531 1.6522 0 3.1491.5 4.3417 1.3819v-1.6521c0-1.5746-1-2.5746-2.5342-2.5746-1.1397 0-2.0031.5249-2.3323 1.3634-.1149.2888-.3851.4814-.6956.4814h-4.1802c-.4969 0-.8633-.4752-.7298-.9535.9193-3.2641 3.8758-5.5373 8.0155-5.5373 4.6491 0 8.068 2.9192 8.068 7.1864zm-5.6083 6.8354c0-1.2671-1.2298-2.2671-2.8044-2.2671-1.5372 0-2.7671 1-2.7671 2.2671 0 1.2298 1.2299 2.2298 2.7671 2.2298 1.5746 0 2.8044-1 2.8044-2.2298z"/><path d="m139.804 35.2841v12.2205c0 .3571-.288.6491-.649.6491h-4.006c-.357 0-.649-.2888-.649-.6491v-.5031c-1.23 1-2.842 1.6118-4.649 1.6118-3.919 0-6.991-2.8043-6.991-6.4938 0-3.7267 3.075-6.531 6.991-6.531 1.652 0 3.149.5 4.342 1.3819v-1.6521c0-1.5746-1-2.5746-2.535-2.5746-1.139 0-2.003.5249-2.332 1.3634-.115.2888-.385.4814-.695.4814h-4.181c-.496 0-.863-.4752-.729-.9535.919-3.2641 3.875-5.5373 8.015-5.5373 4.649 0 8.068 2.9192 8.068 7.1864zm-5.608 6.8354c0-1.2671-1.23-2.2671-2.805-2.2671-1.537 0-2.767 1-2.767 2.2671 0 1.2298 1.23 2.2298 2.767 2.2298 1.575 0 2.805-1 2.805-2.2298z"/><path d="m98.5093 66.4451v12.2205c0 .3572-.2888.6491-.6491.6491h-4.0062c-.3571 0-.6491-.2888-.6491-.6491v-.5031c-1.2298 1-2.8416 1.6118-4.649 1.6118-3.9193 0-6.9907-2.8043-6.9907-6.4938 0-3.7267 3.0745-6.531 6.9907-6.531 1.6521 0 3.149.5 4.3416 1.382v-1.6522c0-1.5745-1-2.5745-2.5342-2.5745-1.1397 0-2.0031.5248-2.3323 1.3633-.1149.2888-.3851.4814-.6956.4814h-4.1802c-.4968 0-.8633-.4752-.7298-.9534.9193-3.264 3.8758-5.5373 8.0156-5.5373 4.649.0031 8.0683 2.9224 8.0683 7.1863zm-5.6087 6.8385c0-1.267-1.2298-2.267-2.8044-2.267-1.5372 0-2.767 1-2.767 2.267 0 1.2299 1.2298 2.2299 2.767 2.2299 1.5746 0 2.8044-1 2.8044-2.2299z"/><path d="m142.751 42.1972h3.709c.437 0 .813.2764.972.6833.292.7422 1.049 1.2764 1.944 1.2764 1.074 0 1.922-.6522 1.922-1.5 0-1.2298-1.537-1.8044-3.149-2.1522-2.957-.6926-6.186-2.1894-6.186-6.2236s3.419-6.1864 7.298-6.1864c3.726 0 6.618 2.1243 7.248 4.9721.134.6025-.32 1.177-.935 1.177h-3.81c-.357 0-.705-.2018-.823-.5403-.233-.6646-.888-1.1522-1.714-1.1522-.923 0-1.653.6149-1.653 1.3447 0 1.1149 1.345 1.7298 3.264 2.1894 2.957.7299 6.069 2.1118 6.069 6.0715 0 4.1118-3.42 6.4534-7.569 6.4534-3.916 0-6.897-2.264-7.521-5.2422-.128-.5994.32-1.1709.934-1.1709z"/><path d="m124.419 73.3613h3.708c.438 0 .814.2764.973.6832.291.7423 1.049 1.2764 1.944 1.2764 1.074 0 1.922-.6522 1.922-1.5 0-1.2298-1.537-1.8043-3.149-2.1522-2.957-.6925-6.186-2.1894-6.186-6.2236 0-4.0341 3.419-6.1863 7.298-6.1863 3.726 0 6.618 2.1242 7.248 4.972.134.6025-.32 1.1771-.935 1.1771h-3.813c-.357 0-.705-.2019-.823-.5404-.233-.6646-.888-1.1522-1.715-1.1522-.922 0-1.652.6149-1.652 1.3447 0 1.1149 1.345 1.7298 3.264 2.1895 2.957.7298 6.069 2.1118 6.069 6.0714 0 4.1118-3.42 6.4534-7.569 6.4534-3.916 0-6.897-2.2639-7.522-5.2422-.124-.5994.323-1.1708.938-1.1708z"/><path d="m80.8201 74.4578v4.1056c0 .4162-.3354.7516-.7515.7516h-12.8293c-.4161 0-.7515-.3354-.7515-.7516v-25.0062c0-.4161.3354-.7515.7515-.7515h4.4535c.4161 0 .7515.3354.7515.7515v20.1491h7.6243c.413 0 .7515.3385.7515.7515z"/><path d="m122.491 69.5196c0 5.8385-4.034 10.2578-9.451 10.2578-2.419 0-4.456-1-5.916-2.6522v1.2112c0 .5404-.438.9782-.978.9782h-3.652c-.54 0-.978-.4378-.978-.9782v-25.6988c0-.5435.438-.9814.981-.9814h3.646c.543 0 .981.4379.981.9814v9.2764c1.46-1.6522 3.497-2.6522 5.916-2.6522 5.417 0 9.451 4.4193 9.451 10.2578zm-5.764 0c0-2.7671-2.034-4.8416-4.801-4.8416-2.768 0-4.802 2.0745-4.802 4.8416 0 2.764 2.034 4.8385 4.802 4.8385 2.767 0 4.801-2.0745 4.801-4.8385z"/><path d="m115.863 29.4736c-.118 4.5652-1.118 9.6584-2.829 13.6305-1.711-3.9721-2.711-9.0684-2.829-13.6305-.012-.5062-.419-.9131-.925-.9131h-4.087c-.519 0-.948.4286-.935.9473.146 6.4596 1.801 12.5497 4.618 17.9441.227.4348.683.7018 1.174.7018h5.969c.49 0 .944-.267 1.174-.7018 2.816-5.3913 4.469-11.4845 4.618-17.9441.012-.5187-.417-.9473-.935-.9473h-4.087c-.506 0-.913.4069-.926.9131z"/><path d="m61.336 58.8297c-.1729-3.0578-.9919-6.0407-2.3969-8.7454.4811-.9242.9016-1.8782 1.2473-2.8776.0074-.0224.0226-.0376.0301-.06.0226-.0751.045-.1503.0677-.2254.1577-.4733.3003-.9466.4282-1.4351.0149-.0674.0299-.1276.0451-.1954.1127-.458.2102-.9239.2928-1.3975.0152-.0975.0376-.2028.0528-.3003.0826-.5034.1426-1.0068.1879-1.5251.0075-.1053.0149-.218.0224-.3233.0375-.5333.0677-1.0668.0677-1.6003 0-.5333-.0302-1.0292-.0677-1.5025-.3081-4.4478-1.9836-8.7003-4.8233-12.1488l2.1562-2.5245c.5935-.6987.7211-1.6454.3379-2.4718-.3829-.8265-1.187-1.3449-2.1034-1.3449h-6.1084c-1.6978 0-3.3733-.2329-4.9811-.6912-1.9236-.5635-3.922-.8415-5.9431-.8415-2.0209 0-4.0196.278-5.9429.834-1.6078.4583-3.2832.6912-4.9812.6912h-6.1082c-.9166 0-1.7205.5184-2.1037 1.3449-.3832.8264-.2554 1.7806.3381 2.4718l2.1563 2.5244c-3.1556 3.8468-4.8836 8.6704-4.8836 13.6589 0 3.2006.6912 6.281 2.0511 9.1661.1052.2255.2179.4435.3531.7062l.0301.0603c-.0075.0149-.015.0301-.0226.045l.0601.0301.0601.1128-.1653-.0752-.0676.1351c-.0751.1578-.1502.3081-.2554.5183-.0827.173-.1578.3457-.2404.5261-1.1946 2.7422-1.8032 5.65-1.8032 8.6475 0 4.4479 1.3899 8.7982 3.9369 12.4118l-.0376.0376.9392 1.1571c3.8768 4.7485 9.5193 7.5882 15.5972 7.8889.218.0149.4435.0149.669.0226.135 0 .2701.0149.3981.0149h.0224c.4208 0 .8416-.0149 1.2546-.0375.1127-.0075.2255-.0149.3382-.0227.323-.0224.6463-.0525.9618-.0901.0599-.0074.1202-.0074.1801-.0149.0227 0 .0454-.0077.0677-.0152 1.728-.2251 3.396-.6612 4.9662-1.2696 2.8174.9615 5.7627 1.4575 8.7829 1.4575h2.3143c1.4574 0 2.6444-1.187 2.6444-2.6447v-18.8879-.0078c.0152-.4205 0-.8112-.0224-1.1869z"/></g><path d="m59.7207 60.0166c0-3.6214-.969-7.0099-2.6597-9.9326-1.0292-1.7804-2.3366-3.3885-3.8465-4.7708-.0302-.0301-.0677-.0525-.0979-.0826-.1425-.1276-.2854-.2556-.4357-.3832-.045-.0376-.0975-.0752-.1428-.1202-.0674-.0525-.1351-.1127-.2028-.1652-.0525-.0376-.105-.0826-.1503-.1202-.0451-.0376-.1426-.1127-.1426-.1127-2.5171-1.9609-5.5071-3.3283-8.7829-3.892-.4584-.0826-.9242.0979-1.2249.451l-2.1937 2.5692-2.1938-2.5692c-.3007-.3531-.7665-.5261-1.2246-.451-3.3959.586-6.499 2.0435-9.076 4.1249-.5259-1.4876-.7964-3.0879-.7513-4.7634.1803-7.1525 6.0783-12.9002 13.2382-12.9002 7.3103-.0075 13.2531 5.9431 13.2531 13.2459 0 .6835-.0525 1.3521-.15 2.0133-.0677.4208.105.8491.4357 1.1196 1.3224 1.0742 2.5093 2.2838 3.5385 3.6214.4811.6236 1.4653.4581 1.7283-.2857.6988-2.0286 1.0742-4.1997 1.0742-6.4686 0-4.9739-1.8258-9.5193-4.8459-12.998-.323-.3756-.3305-.9241-.0075-1.2997l2.5168-2.9527c.3683-.4283.0602-1.0894-.5034-1.0894h-6.1081c-1.8407 0-3.6739-.2555-5.4395-.7589-1.7431-.5034-3.5838-.7663-5.4922-.7663s-3.7491.2705-5.4922.7663c-1.7656.5109-3.5987.7589-5.4394.7589h-6.0857c-.5635 0-.8715.6611-.5034 1.0894l2.5169 2.9527c.3231.3756.3155.9241-.0075 1.2997-3.0203 3.4787-4.846 8.0241-4.846 12.998 0 3.0276.6762 5.89 1.8858 8.4596.0977.2028.1954.4059.3005.6087.0301.0677.0676.1276.0977.1953.0376.0677.0751.1429.1127.2103.0827.1503.1653.3081.2554.4584-.0976.1652-.1878.3382-.2779.5034-.0602.1053-.1127.2177-.1729.3304-.03.0528-.0525.1053-.0826.1578-.0751.1428-.1427.2931-.2104.436-.0075.0149-.015.0298-.0225.045-.0751.1578-.1503.323-.2179.4882-1.0744 2.4494-1.6679 5.1392-1.6679 7.9792 0 4.7634 1.6754 9.1361 4.4703 12.5544 3.6439 4.4627 9.1811 7.3102 15.387 7.3102.864 0 1.7056-.0525 2.5394-.1577.9392-.1202 1.187-1.3674.3684-1.8407-2.0211-1.1721-3.8845-2.6072-5.56-4.2826l-.0074-.0075c-.4659-.4658-1.0292-.8413-1.6528-1.0518-2.427-.8414-4.5381-2.3665-6.1009-4.35-1.7731-2.2541-2.8324-5.0941-2.8324-8.1743 0-1.5478.2705-3.0354.7588-4.418-.0225-.0149-.0375-.0298-.0601-.0525.0226.0149.0376.0302.0601.0525.7589-2.1487 2.0586-4.0419 3.7341-5.522 2.3367-2.0587 5.4019-3.3134 8.7528-3.3134s6.4162 1.2547 8.7528 3.3134c1.6755 1.4801 2.9752 3.3733 3.7342 5.522.4882 1.3826.7587 2.8702.7587 4.418v.0075 12.9301c-3.764-.6838-7.2802-2.4643-10.0224-5.1991-3.5764-3.5689-5.5447-8.317-5.5447-13.3661 0-1.5099.1726-2.9901.5258-4.4401.1652-.6987-.4808-1.3223-1.1721-1.1422-1.7205.4584-3.3283 1.3149-4.6882 2.5096-.0978.0826-.1953.1727-.2854.2628-.6161.5785-.9693 1.3826-.9919 2.2239-.0074.1953-.0074.3906-.0074.586 0 3.4413.676 6.7845 2.0058 9.9251 1.2848 3.0351 3.1255 5.7625 5.4621 8.1066 2.3441 2.3441 5.0715 4.1773 8.1069 5.4621 3.1481 1.3298 6.4838 2.0062 9.9248 2.0062h2.3218c.5484 0 .9916-.4435.9916-.9919z" fill="#221c35"/><path d="m34.5966 37.8904c1.8298 0 3.3133-1.4836 3.3133-3.3134s-1.4835-3.3133-3.3133-3.3133c-1.8299 0-3.3134 1.4835-3.3134 3.3133s1.4835 3.3134 3.3134 3.3134z" fill="#221c35"/><path d="m45.1002 37.8904c1.8298 0 3.3131-1.4836 3.3131-3.3134s-1.4833-3.3133-3.3131-3.3133c-1.8301 0-3.3133 1.4835-3.3133 3.3133s1.4832 3.3134 3.3133 3.3134z" fill="#221c35"/></g></svg>