<svg width="37" height="31" viewBox="0 0 37 31" fill="none" xmlns="http://www.w3.org/2000/svg">
<path d="M36.9231 3.55447C35.55 4.15678 34.0869 4.55601 32.5615 4.74985C34.1308 3.81293 35.3285 2.34062 35.8915 0.566006C34.4285 1.43831 32.8131 2.05447 31.0915 2.39831C29.7023 0.919084 27.7223 0.00292969 25.5623 0.00292969C21.3715 0.00292969 17.9977 3.40447 17.9977 7.57447C17.9977 8.17447 18.0485 8.75139 18.1731 9.30062C11.88 8.9937 6.31154 5.97755 2.57077 1.38293C1.91769 2.51601 1.53462 3.81293 1.53462 5.20908C1.53462 7.83062 2.88462 10.1545 4.89692 11.4999C3.68077 11.4768 2.48769 11.1237 1.47692 10.5675C1.47692 10.5906 1.47692 10.6206 1.47692 10.6506C1.47692 14.3291 4.10077 17.3845 7.54154 18.0883C6.92538 18.2568 6.25385 18.3375 5.55692 18.3375C5.07231 18.3375 4.58308 18.3099 4.12385 18.2083C5.10462 21.206 7.88769 23.4099 11.1969 23.4814C8.62154 25.496 5.35154 26.7099 1.81154 26.7099C1.19077 26.7099 0.595385 26.6822 0 26.606C3.35308 28.7683 7.32692 30.0029 11.6123 30.0029C25.5415 30.0029 33.1569 18.4645 33.1569 8.46293C33.1569 8.12831 33.1454 7.80524 33.1292 7.48447C34.6315 6.41831 35.8938 5.08678 36.9231 3.55447Z" fill="#221C35"/>
</svg>
